HIERARCHY
ROOT mixamorig:Hips
{
	OFFSET 0.000000 201.639420 0.000000
	CHANNELS 6 Xposition Yposition Zposition Xrotation Yrotation Zrotation
	JOINT mixamorig:Spine
	{
		OFFSET 0.006200 19.524994 -2.481800
		CHANNELS 3 Xrotation Yrotation Zrotation
		JOINT mixamorig:Spine1
		{
			OFFSET -0.000900 22.835007 -2.825400
			CHANNELS 3 Xrotation Yrotation Zrotation
			JOINT mixamorig:Spine2
			{
				OFFSET -0.020600 26.552490 -3.193300
				CHANNELS 3 Xrotation Yrotation Zrotation
				JOINT mixamorig:Neck
				{
					OFFSET -0.060000 30.701813 1.352200
					CHANNELS 3 Xrotation Yrotation Zrotation
					JOINT mixamorig:Head
					{
						OFFSET -0.087200 22.547607 3.670900
						CHANNELS 3 Xrotation Yrotation Zrotation
						JOINT mixamorig:HeadTop_End
						{
							OFFSET -0.830600 40.355194 7.893500
							CHANNELS 3 Xrotation Yrotation Zrotation
							End Site
							{
								OFFSET 0.000000 30.592346 0.000000
							}
						}
						JOINT mixamorig:RightEye
						{
							OFFSET -6.302100 18.118591 16.197100
							CHANNELS 3 Xrotation Yrotation Zrotation
							End Site
							{
								OFFSET 0.000000 30.592346 0.000000
							}
						}
						JOINT mixamorig:LeftEye
						{
							OFFSET 6.741500 18.382690 16.401899
							CHANNELS 3 Xrotation Yrotation Zrotation
							End Site
							{
								OFFSET 0.000000 30.592346 0.000000
							}
						}
					}
				}
				JOINT mixamorig:LeftShoulder
				{
					OFFSET 11.924900 18.230499 1.425400
					CHANNELS 3 Xrotation Yrotation Zrotation
					JOINT mixamorig:LeftArm
					{
						OFFSET 25.435989 -0.697632 -5.229300
						CHANNELS 3 Xrotation Yrotation Zrotation
						JOINT mixamorig:LeftForeArm
						{
							OFFSET 54.684776 0.000000 0.000000
							CHANNELS 3 Xrotation Yrotation Zrotation
							JOINT mixamorig:LeftHand
							{
								OFFSET 55.098175 0.000000 0.000000
								CHANNELS 3 Xrotation Yrotation Zrotation
								JOINT mixamorig:LeftHandMiddle1
								{
									OFFSET 23.369751 0.000000 0.000000
									CHANNELS 3 Xrotation Yrotation Zrotation
									JOINT mixamorig:LeftHandMiddle2
									{
										OFFSET 6.378677 0.000000 0.000000
										CHANNELS 3 Xrotation Yrotation Zrotation
										JOINT mixamorig:LeftHandMiddle3
										{
											OFFSET 6.148331 0.000000 0.000000
											CHANNELS 3 Xrotation Yrotation Zrotation
											JOINT mixamorig:LeftHandMiddle4
											{
												OFFSET 6.582504 0.000000 0.000000
												CHANNELS 3 Xrotation Yrotation Zrotation
												End Site
												{
													OFFSET -1.168900 6.395691 1.028606
												}
											}
										}
									}
								}
								JOINT mixamorig:LeftHandThumb1
								{
									OFFSET 7.235672 -3.848206 5.434273
									CHANNELS 3 Xrotation Yrotation Zrotation
									JOINT mixamorig:LeftHandThumb2
									{
										OFFSET 6.568451 -3.792297 3.792300
										CHANNELS 3 Xrotation Yrotation Zrotation
										JOINT mixamorig:LeftHandThumb3
										{
											OFFSET 6.063080 -3.500519 3.500518
											CHANNELS 3 Xrotation Yrotation Zrotation
											JOINT mixamorig:LeftHandThumb4
											{
												OFFSET 4.793182 -2.767334 2.767349
												CHANNELS 3 Xrotation Yrotation Zrotation
												End Site
												{
													OFFSET 0.101639 6.054260 1.275483
												}
											}
										}
									}
								}
								JOINT mixamorig:LeftHandIndex1
								{
									OFFSET 23.101074 -0.309540 4.992809
									CHANNELS 3 Xrotation Yrotation Zrotation
									JOINT mixamorig:LeftHandIndex2
									{
										OFFSET 6.226883 0.000000 0.000000
										CHANNELS 3 Xrotation Yrotation Zrotation
										JOINT mixamorig:LeftHandIndex3
										{
											OFFSET 6.094330 0.000000 0.000000
											CHANNELS 3 Xrotation Yrotation Zrotation
											JOINT mixamorig:LeftHandIndex4
											{
												OFFSET 5.482605 0.000000 0.000000
												CHANNELS 3 Xrotation Yrotation Zrotation
												End Site
												{
													OFFSET -1.427902 5.233032 0.797164
												}
											}
										}
									}
								}
								JOINT mixamorig:LeftHandRing1
								{
									OFFSET 22.299240 0.021149 -3.964172
									CHANNELS 3 Xrotation Yrotation Zrotation
									JOINT mixamorig:LeftHandRing2
									{
										OFFSET 6.321869 0.000000 0.000000
										CHANNELS 3 Xrotation Yrotation Zrotation
										JOINT mixamorig:LeftHandRing3
										{
											OFFSET 5.899796 0.000000 0.000000
											CHANNELS 3 Xrotation Yrotation Zrotation
											JOINT mixamorig:LeftHandRing4
											{
												OFFSET 6.517899 0.000000 0.000000
												CHANNELS 3 Xrotation Yrotation Zrotation
												End Site
												{
													OFFSET -1.637299 6.232208 0.980890
												}
											}
										}
									}
								}
								JOINT mixamorig:LeftHandPinky1
								{
									OFFSET 20.463791 -0.302338 -8.562233
									CHANNELS 3 Xrotation Yrotation Zrotation
									JOINT mixamorig:LeftHandPinky2
									{
										OFFSET 6.908646 0.000000 0.000000
										CHANNELS 3 Xrotation Yrotation Zrotation
										JOINT mixamorig:LeftHandPinky3
										{
											OFFSET 4.622849 0.000000 0.000000
											CHANNELS 3 Xrotation Yrotation Zrotation
											JOINT mixamorig:LeftHandPinky4
											{
												OFFSET 5.216080 0.000000 0.000000
												CHANNELS 3 Xrotation Yrotation Zrotation
												End Site
												{
													OFFSET -0.606308 5.116241 0.814926
												}
											}
										}
									}
								}
							}
						}
					}
				}
				JOINT mixamorig:RightShoulder
				{
					OFFSET -12.001300 18.284088 1.348900
					CHANNELS 3 Xrotation Yrotation Zrotation
					JOINT mixamorig:RightArm
					{
						OFFSET -25.308500 -0.751312 -5.164599
						CHANNELS 3 Xrotation Yrotation Zrotation
						JOINT mixamorig:RightForeArm
						{
							OFFSET -54.684429 0.000000 0.000000
							CHANNELS 3 Xrotation Yrotation Zrotation
							JOINT mixamorig:RightHand
							{
								OFFSET -55.150291 0.000000 0.000000
								CHANNELS 3 Xrotation Yrotation Zrotation
								JOINT mixamorig:RightHandMiddle1
								{
									OFFSET -23.317566 0.000000 0.000000
									CHANNELS 3 Xrotation Yrotation Zrotation
									JOINT mixamorig:RightHandMiddle2
									{
										OFFSET -6.378403 0.000000 0.000000
										CHANNELS 3 Xrotation Yrotation Zrotation
										JOINT mixamorig:RightHandMiddle3
										{
											OFFSET -6.148193 0.000000 0.000000
											CHANNELS 3 Xrotation Yrotation Zrotation
											JOINT mixamorig:RightHandMiddle4
											{
												OFFSET -6.583389 0.000000 0.000000
												CHANNELS 3 Xrotation Yrotation Zrotation
												End Site
												{
													OFFSET 1.171692 6.395905 1.029786
												}
											}
										}
									}
								}
								JOINT mixamorig:RightHandThumb1
								{
									OFFSET -7.190521 -3.860474 5.435846
									CHANNELS 3 Xrotation Yrotation Zrotation
									JOINT mixamorig:RightHandThumb2
									{
										OFFSET -6.567429 -3.791718 3.791708
										CHANNELS 3 Xrotation Yrotation Zrotation
										JOINT mixamorig:RightHandThumb3
										{
											OFFSET -6.062469 -3.500153 3.500166
											CHANNELS 3 Xrotation Yrotation Zrotation
											JOINT mixamorig:RightHandThumb4
											{
												OFFSET -4.792618 -2.767029 2.767022
												CHANNELS 3 Xrotation Yrotation Zrotation
												End Site
												{
													OFFSET -0.100327 6.053253 1.276754
												}
											}
										}
									}
								}
								JOINT mixamorig:RightHandIndex1
								{
									OFFSET -23.048981 -0.310791 4.992554
									CHANNELS 3 Xrotation Yrotation Zrotation
									JOINT mixamorig:RightHandIndex2
									{
										OFFSET -6.227539 0.000000 0.000000
										CHANNELS 3 Xrotation Yrotation Zrotation
										JOINT mixamorig:RightHandIndex3
										{
											OFFSET -6.095047 0.000000 0.000000
											CHANNELS 3 Xrotation Yrotation Zrotation
											JOINT mixamorig:RightHandIndex4
											{
												OFFSET -5.484772 0.000000 0.000000
												CHANNELS 3 Xrotation Yrotation Zrotation
												End Site
												{
													OFFSET 1.420593 5.237305 0.797056
												}
											}
										}
									}
								}
								JOINT mixamorig:RightHandRing1
								{
									OFFSET -22.246323 0.020569 -3.963762
									CHANNELS 3 Xrotation Yrotation Zrotation
									JOINT mixamorig:RightHandRing2
									{
										OFFSET -6.322128 0.000000 0.000000
										CHANNELS 3 Xrotation Yrotation Zrotation
										JOINT mixamorig:RightHandRing3
										{
											OFFSET -5.900024 0.000000 0.000000
											CHANNELS 3 Xrotation Yrotation Zrotation
											JOINT mixamorig:RightHandRing4
											{
												OFFSET -6.518356 0.000000 0.000000
												CHANNELS 3 Xrotation Yrotation Zrotation
												End Site
												{
													OFFSET 1.636398 6.232697 0.982186
												}
											}
										}
									}
								}
								JOINT mixamorig:RightHandPinky1
								{
									OFFSET -20.411011 -0.303314 -8.561701
									CHANNELS 3 Xrotation Yrotation Zrotation
									JOINT mixamorig:RightHandPinky2
									{
										OFFSET -6.907349 0.000000 0.000000
										CHANNELS 3 Xrotation Yrotation Zrotation
										JOINT mixamorig:RightHandPinky3
										{
											OFFSET -4.623840 0.000000 0.000000
											CHANNELS 3 Xrotation Yrotation Zrotation
											JOINT mixamorig:RightHandPinky4
											{
												OFFSET -5.218353 0.000000 0.000000
												CHANNELS 3 Xrotation Yrotation Zrotation
												End Site
												{
													OFFSET 0.602097 5.118835 0.816273
												}
											}
										}
									}
								}
							}
						}
					}
				}
			}
		}
	}
	JOINT mixamorig:LeftUpLeg
	{
		OFFSET 18.168400 -13.561905 -0.039000
		CHANNELS 3 Xrotation Yrotation Zrotation
		JOINT mixamorig:LeftLeg
		{
			OFFSET 0.577358 -80.825211 -3.695000
			CHANNELS 3 Xrotation Yrotation Zrotation
			JOINT mixamorig:LeftFoot
			{
				OFFSET -0.577356 -83.370262 -6.520700
				CHANNELS 3 Xrotation Yrotation Zrotation
				JOINT mixamorig:LeftToeBase
				{
					OFFSET 0.750401 -20.798306 25.135401
					CHANNELS 3 Xrotation Yrotation Zrotation
					JOINT mixamorig:LeftToe_End
					{
						OFFSET -0.000500 0.001200 19.917799
						CHANNELS 3 Xrotation Yrotation Zrotation
						End Site
						{
							OFFSET 0.000000 19.917805 0.000000
						}
					}
				}
			}
		}
	}
	JOINT mixamorig:RightUpLeg
	{
		OFFSET -18.162500 -13.585098 -0.041000
		CHANNELS 3 Xrotation Yrotation Zrotation
		JOINT mixamorig:RightLeg
		{
			OFFSET -0.595024 -80.945297 -3.631900
			CHANNELS 3 Xrotation Yrotation Zrotation
			JOINT mixamorig:RightFoot
			{
				OFFSET 0.595024 -83.218193 -6.561200
				CHANNELS 3 Xrotation Yrotation Zrotation
				JOINT mixamorig:RightToeBase
				{
					OFFSET -0.753601 -20.807106 25.115000
					CHANNELS 3 Xrotation Yrotation Zrotation
					JOINT mixamorig:RightToe_End
					{
						OFFSET 0.000299 0.001700 19.918200
						CHANNELS 3 Xrotation Yrotation Zrotation
						End Site
						{
							OFFSET 0.000000 19.918203 0.000000
						}
					}
				}
			}
		}
	}
}
MOTION
Frames: 4
Frame Time: 0.033333
-0.269355 118.467148 -9.083305 -34.823907 0.074982 2.172709 7.149491 0.340529 -0.050243 14.296446 0.801437 0.185226 14.296448 0.801437 0.185226 4.839995 -2.022664 -0.930287 -1.596129 -12.080418 5.283374 0.000000 0.000001 -0.000000 0.000000 0.000001 -0.000000 0.000000 0.000001 -0.000000 1.098630 0.477258 -24.462671 8.615274 -9.807840 -48.734042 -0.114575 -37.061412 0.087383 27.277009 0.986479 -22.373234 8.705139 4.844184 -39.740674 -0.797415 -2.105103 -33.773172 -0.000003 -0.000020 0.000003 -0.000001 -0.000000 0.000003 -6.918109 -4.102612 18.276273 3.041920 -4.465111 15.093869 -0.000006 -0.000002 -0.000011 0.000005 -0.000003 0.000000 4.506643 9.589956 -30.211802 0.296766 1.134538 -47.340922 0.000004 -0.000010 -0.000008 -0.000002 -0.000003 -0.000004 -1.596467 16.126053 -44.841035 -1.071162 -3.579018 -38.778208 0.000004 0.000002 0.000000 0.000000 -0.000002 0.000001 -2.505817 10.242364 -48.577955 -2.064958 -7.683448 -46.109852 -0.000005 -0.000002 -0.000000 -0.000002 -0.000003 0.000000 1.218466 -1.201355 25.092249 11.882703 29.264994 35.515563 41.324816 76.143693 -41.961674 61.759650 0.884787 -8.111869 -0.769869 -2.130292 16.377831 -0.813741 1.754019 39.422295 0.000000 -0.000002 0.000002 0.000004 -0.000002 0.000001 -4.933597 -3.839421 -10.210312 2.321151 -6.714534 -2.170922 0.000004 0.000006 0.000002 0.000001 -0.000001 0.000001 -3.537918 1.873439 23.721870 0.448642 -1.786167 38.219287 -0.000007 -0.000001 0.000004 0.000001 -0.000001 0.000000 -0.159830 -3.888177 17.278975 -0.609882 3.171380 25.740218 -0.000004 -0.000014 -0.000000 -0.000001 -0.000000 -0.000001 3.335810 -6.870355 19.343188 -0.265773 5.256888 13.655000 0.000006 0.000004 -0.000001 0.000002 0.000002 -0.000001 -58.077249 -5.853455 11.982489 79.956483 -0.446347 -2.564034 22.784898 0.358831 -9.977460 -11.075998 -0.080174 0.611006 -0.000000 0.000001 -0.000000 -56.657754 7.261127 -16.920798 79.966345 0.872386 2.623408 12.717409 -3.039721 1.482530 1.278945 -0.190822 0.453911 -0.000000 -0.000001 -0.000000 
-0.235021 118.510147 -9.109123 -34.784139 0.093881 2.241006 7.134069 0.325617 -0.050890 14.265589 0.775791 0.195694 14.265590 0.775791 0.195694 4.665701 -2.019675 -0.957354 -1.426862 -12.100494 5.422594 -0.000000 -0.000000 -0.000000 -0.000000 -0.000000 -0.000000 -0.000000 -0.000000 -0.000000 1.105678 0.449804 -24.665835 8.563528 -9.611403 -48.716830 -0.113516 -36.946689 0.086640 27.973340 0.999118 -22.720797 8.705138 4.844184 -39.740667 -0.797417 -2.105101 -33.773165 -0.000001 -0.000011 0.000001 -0.000001 -0.000003 0.000001 -6.965420 -4.118387 18.058361 3.041923 -4.465114 15.093868 -0.000001 -0.000003 -0.000005 0.000000 0.000001 -0.000004 4.506645 9.589956 -30.211798 0.296769 1.134537 -47.340919 0.000002 -0.000005 -0.000002 -0.000000 -0.000001 0.000002 -1.596466 16.126049 -44.841032 -1.071157 -3.579016 -38.778208 0.000002 -0.000003 -0.000002 -0.000002 0.000002 -0.000001 -2.505816 10.242365 -48.577955 -2.064958 -7.683445 -46.109859 -0.000006 -0.000006 -0.000001 0.000002 0.000002 -0.000000 1.223479 -1.219213 25.155928 11.854983 29.171291 35.535394 41.372877 76.099331 -42.004229 61.788289 0.978426 -11.076922 -0.769869 -2.130298 16.377829 -0.813742 1.754018 39.422298 0.000004 0.000002 -0.000003 0.000004 0.000002 0.000004 -4.933595 -3.839423 -10.210314 2.321148 -6.714534 -2.170919 0.000004 0.000007 0.000003 0.000001 0.000002 0.000001 -3.537918 1.873435 23.721877 0.448639 -1.786175 38.219283 -0.000006 -0.000002 -0.000003 -0.000001 0.000000 0.000001 -0.159827 -3.888183 17.278973 -0.609881 3.171385 25.740217 -0.000006 -0.000017 0.000006 -0.000000 -0.000003 -0.000002 3.335809 -6.870360 19.343188 -0.265775 5.256887 13.654998 0.000007 0.000005 0.000000 -0.000003 -0.000003 0.000000 -58.072112 -5.829209 11.870217 79.979616 -0.447864 -2.564509 22.632657 0.552255 -10.038510 -11.058358 -0.079976 0.610981 -0.000000 0.000001 0.000000 -56.636116 7.395485 -16.880017 80.016506 0.829335 2.622647 12.519077 -3.260637 1.492676 1.301869 -0.190865 0.454056 0.000000 -0.000002 -0.000000 
-0.186927 118.571182 -9.152336 -34.717117 0.128426 2.292858 7.113888 0.318304 -0.063502 14.225175 0.766001 0.186208 14.225171 0.766001 0.186208 4.493787 -2.044626 -0.752612 -1.450082 -12.053429 5.145375 -0.000000 0.000000 0.000000 -0.000000 0.000000 0.000000 -0.000000 0.000000 0.000000 1.113691 0.481636 -24.677745 8.632365 -9.753280 -48.724807 -0.113166 -36.803569 0.085798 28.799517 0.965404 -23.177076 8.705142 4.844186 -39.740674 -0.797415 -2.105104 -33.773172 -0.000004 -0.000014 -0.000002 -0.000001 0.000002 0.000003 -6.446640 -3.177147 18.943530 3.041923 -4.465112 15.093868 0.000000 -0.000002 -0.000004 0.000003 -0.000001 0.000002 4.506648 9.589957 -30.211802 0.296770 1.134539 -47.340922 0.000001 -0.000005 -0.000000 0.000000 0.000001 -0.000002 -1.596466 16.126056 -44.841035 -1.071152 -3.579014 -38.778201 0.000004 -0.000001 0.000002 -0.000000 0.000001 0.000002 -2.505810 10.242366 -48.577955 -2.064958 -7.683443 -46.109852 -0.000004 -0.000005 -0.000002 -0.000002 0.000003 -0.000001 1.230357 -1.253063 25.211352 12.102433 29.349678 35.517312 41.399037 76.052551 -42.023203 61.702624 -0.768272 -15.375466 -0.769869 -2.130294 16.377829 -0.813744 1.754012 39.422295 -0.000001 -0.000000 -0.000002 0.000003 0.000003 0.000004 -4.933598 -3.839420 -10.210311 2.321149 -6.714533 -2.170920 0.000003 0.000002 0.000005 -0.000001 0.000001 0.000001 -3.537917 1.873436 23.721872 0.448642 -1.786170 38.219283 -0.000004 -0.000001 -0.000001 0.000001 -0.000001 -0.000004 -0.159830 -3.888177 17.278972 -0.609880 3.171380 25.740220 -0.000006 -0.000014 0.000009 0.000002 -0.000002 -0.000001 3.335809 -6.870355 19.343190 -0.265774 5.256885 13.654998 0.000005 0.000002 0.000002 -0.000002 0.000000 0.000001 -58.091305 -5.802531 11.768984 79.977014 -0.449409 -2.565121 22.506916 0.870519 -10.095755 -10.946199 -0.078718 0.610829 -0.000000 0.000000 -0.000000 -56.630232 7.578887 -16.831992 80.060076 0.772638 2.620654 12.488554 -3.748117 1.966406 1.360021 -0.191020 0.454394 0.000000 0.000000 0.000000 
-0.193057 118.613541 -9.217674 -34.664583 0.019615 2.092069 7.098280 0.323340 -0.028633 14.194007 0.769774 0.228319 14.194003 0.769773 0.228318 4.303616 -2.112748 -0.039211 -1.791402 -11.653727 3.560847 -0.000000 0.000001 -0.000000 -0.000000 0.000001 -0.000000 -0.000000 0.000001 -0.000000 1.119565 0.637414 -24.186356 9.088138 -10.604862 -49.075408 -0.120300 -36.243969 0.081387 28.082439 0.930321 -22.600015 8.705142 4.844186 -39.740674 -0.797418 -2.105102 -33.773168 -0.000003 -0.000014 -0.000004 -0.000002 0.000004 -0.000001 -6.254674 -4.433031 22.444242 3.041926 -4.465110 15.093857 -0.000002 -0.000005 -0.000005 -0.000004 -0.000001 0.000001 4.506649 9.589954 -30.211798 0.296772 1.134539 -47.340922 -0.000001 -0.000001 -0.000001 -0.000005 0.000001 0.000001 -1.596462 16.126051 -44.841029 -1.071153 -3.579017 -38.778204 0.000001 -0.000005 0.000003 -0.000001 0.000002 0.000002 -2.505810 10.242366 -48.577958 -2.064960 -7.683439 -46.109859 0.000000 -0.000004 0.000002 0.000000 0.000001 0.000000 1.163112 -0.893402 24.728171 12.976398 30.898622 35.335328 42.080232 76.185494 -42.714214 60.980598 -6.681005 -19.646397 -0.769869 -2.130297 16.377829 -0.813744 1.754011 39.422295 0.000001 0.000002 -0.000003 0.000001 -0.000001 -0.000002 -4.933598 -3.839422 -10.210315 2.321147 -6.714533 -2.170924 0.000006 0.000002 0.000002 -0.000001 -0.000002 0.000001 -3.537920 1.873437 23.721872 0.448642 -1.786169 38.219290 -0.000001 0.000000 0.000006 0.000002 -0.000002 -0.000004 -0.159827 -3.888179 17.278970 -0.609881 3.171384 25.740213 -0.000006 -0.000015 0.000010 -0.000003 0.000001 0.000001 3.335808 -6.870356 19.343186 -0.265777 5.256885 13.654995 0.000003 0.000002 0.000004 -0.000003 -0.000002 -0.000000 -58.109556 -5.860656 12.068773 80.059987 -0.447691 -2.567436 22.306711 1.090332 -10.099020 -10.904626 -0.078264 0.610774 -0.000000 0.000000 0.000000 -56.607501 7.947693 -16.264613 80.051128 0.698354 2.615594 12.929637 -4.204087 3.084426 1.476752 -0.191341 0.455061 -0.000000 -0.000001 0.000000 
